<svg width="36" height="38" viewBox="0 0 36 38" fill="none" xmlns="http://www.w3.org/2000/svg">
<g clip-path="url(#clip0_13920_2694)">
<path d="M10.6758 33.0158H5.2359V11.245H10.6758V33.0158ZM7.95584 8.73141C7.10703 8.73141 6.29298 8.36338 5.69277 7.70827C5.09257 7.05316 4.75538 6.16465 4.75538 5.23818C4.75538 4.31172 5.09257 3.42321 5.69277 2.7681C6.29298 2.11299 7.10703 1.74495 7.95584 1.74495C8.80466 1.74495 9.61871 2.11299 10.2189 2.7681C10.8191 3.42321 11.1563 4.31172 11.1563 5.23818C11.1563 6.16465 10.8191 7.05316 10.2189 7.70827C9.61871 8.36338 8.80466 8.73141 7.95584 8.73141ZM32.4353 33.0158H26.9954V21.9325C26.9954 15.2627 19.7423 15.7575 19.7423 21.9325V33.0158H14.3024V11.245H19.7423V14.7283C20.5707 13.2688 21.8318 12.1626 23.316 11.5935C24.8001 11.0245 26.418 11.0268 27.9007 11.6002C29.3835 12.1736 30.6419 13.2834 31.4668 14.7454C32.2917 16.2073 32.6334 17.9333 32.4353 19.6366V33.0158Z" fill="#1B365D"/>
</g>
<defs>
<clipPath id="clip0_13920_2694">
<rect width="35.2857" height="38" fill="white" transform="translate(0.286133)"/>
</clipPath>
</defs>
</svg>
