<svg width="222" height="32" viewBox="0 0 222 32" fill="none" xmlns="http://www.w3.org/2000/svg">
<g clip-path="url(#clip0_8095_23442)">
<mask id="mask0_8095_23442" style="mask-type:luminance" maskUnits="userSpaceOnUse" x="0" y="0" width="222" height="32">
<path d="M222 0.630371H0V31.6304H222V0.630371Z" fill="white"/>
</mask>
<g mask="url(#mask0_8095_23442)">
<path d="M5.38432 2.38425V20.3531C5.38432 21.362 4.92597 21.8322 3.94327 21.8322H3.39574V22.577H9.51844V21.8322H8.99944C8.0114 21.8322 7.52985 21.3479 7.52985 20.3531V2.38425H8.77116C10.8935 2.38425 11.4963 3.32098 12.1224 5.56423L12.3006 6.19811H12.9141L12.4861 1.19043H0.428036L0 6.19811H0.613517L0.791865 5.56423C1.41608 3.32098 2.02068 2.38425 4.14302 2.38425H5.38432Z" fill="#F99FC9"/>
<path d="M18.8354 21.8602H18.3164C17.5852 21.8602 17.2446 21.5591 17.2446 20.9146V11.3817C18.1773 10.1421 19.2046 9.56461 20.4744 9.56461C22.1831 9.56461 22.8803 10.6352 22.8803 13.2587V20.9146C22.8803 21.5503 22.529 21.8602 21.8085 21.8602H21.2609V22.5768H26.4188V21.8602H25.8712C25.1793 21.8602 24.8279 21.5415 24.8279 20.9146V12.8379C24.8279 9.67202 23.4333 7.78269 21.0986 7.78269C19.2652 7.78269 18.1399 8.83388 17.2427 10.0788V0.630371H16.7701L16.7166 0.709607C15.8801 1.96329 14.9172 2.87714 13.8559 3.4265L13.7596 3.4758V4.03926H15.2935V20.9146C15.2935 21.5503 14.9421 21.8602 14.2216 21.8602H13.7026V22.5768H18.8318V21.8602H18.8354Z" fill="#F99FC9"/>
<path d="M32.6328 22.9978C34.6838 22.9978 36.0321 21.767 37.0059 19.0097L37.0648 18.8406L36.3014 18.5888L36.2426 18.7508C35.5969 20.5468 34.2915 21.186 33.2856 21.186C30.9795 21.186 29.658 18.6328 29.658 14.1833C29.658 13.5776 29.7061 12.9877 29.7989 12.4278L36.8775 12.5968L36.8418 12.3855C36.346 9.50134 34.7195 7.7793 32.4901 7.7793C29.5759 7.7793 27.5392 10.8959 27.5392 15.3595C27.5392 19.8231 29.633 22.9961 32.631 22.9961L32.6328 22.9978ZM32.4616 8.83577C34.1452 8.83577 34.4984 10.2338 34.4984 11.4083C34.4984 11.4822 34.4947 11.5192 34.4912 11.5385C34.4823 11.5385 34.4698 11.5403 34.4502 11.5403H29.9915C30.457 9.81828 31.3505 8.83577 32.4616 8.83577Z" fill="#F99FC9"/>
<path d="M48.5085 22.9976C51.667 22.9976 53.6289 20.7597 53.6289 17.1571C53.6289 14.6551 52.9493 12.5456 49.6285 10.3922C46.568 8.40602 45.9884 7.04845 45.9884 5.23836C45.9884 3.01625 47.5275 1.85236 49.0489 1.85236C51.371 1.85236 51.9648 4.26113 52.0523 6.28427L52.0879 7.0414H52.8049V2.59542L52.7656 2.54788C52.2323 1.88406 51.0535 0.77124 49.1612 0.77124C46.4235 0.77124 44.4386 3.00392 44.4386 6.08001C44.4386 8.36551 45.0682 10.2196 48.207 12.3942C51.0035 14.3329 51.9951 15.9017 51.9951 18.3914C51.9951 20.5502 50.6612 21.9448 48.5941 21.9448C46.3094 21.9448 44.8845 20.1135 44.6811 16.9212L44.6418 16.3366H43.9552V21.2457L44.0141 21.2985C44.8809 22.0733 46.3647 22.9994 48.5085 22.9994V22.9976Z" fill="#F99FC9"/>
<path d="M59.7128 21.8602H59.1939C58.4626 21.8602 58.1219 21.5591 58.1219 20.9147V16.5391L58.8621 15.4773L61.6212 20.6047C61.8904 21.1189 61.9796 21.5204 61.8637 21.7071C61.8013 21.8092 61.6569 21.8619 61.4392 21.8619H60.9202V22.5786H66.1066V21.8619H65.757C64.9954 21.8619 64.275 21.2703 63.6116 20.1011L60.0589 13.7746L62.24 10.695C63.0818 9.50122 63.8148 8.92016 64.4801 8.92016H64.9991V8.20352H60.4387V8.92016H61.1859C61.3857 8.92016 61.6443 8.95714 61.7389 9.13498C61.8709 9.38148 61.7086 9.86747 61.2948 10.4679L58.1273 15.0706V0.630371H57.6547L57.6012 0.709607C56.7452 1.99146 55.7838 2.91411 54.7422 3.45467L54.6459 3.50398V4.06743H56.1798V20.9147C56.1798 21.5503 55.8284 21.8602 55.1079 21.8602H54.5889V22.5768H59.7182V21.8602H59.7128Z" fill="#F99FC9"/>
<path d="M69.4433 4.9373C70.2013 4.9373 70.7291 4.439 70.7291 3.72412C70.7291 3.00923 70.1763 2.45459 69.4433 2.45459C68.7102 2.45459 68.1574 2.97754 68.1574 3.72412C68.1574 4.47069 68.6746 4.9373 69.4433 4.9373Z" fill="#F99FC9"/>
<path d="M72.0081 21.8602H71.4891C70.7579 21.8602 70.4172 21.5591 70.4172 20.9146V7.64185H69.9446L69.8911 7.71932C69.0957 8.88321 68.1397 9.80938 67.0483 10.4714L66.9626 10.5225V11.049H68.4679V20.913C68.4679 21.5486 68.1183 21.8584 67.3961 21.8584H66.8771V22.5751H72.0063V21.8584L72.0081 21.8602Z" fill="#F99FC9"/>
<path d="M78.2267 21.8602H77.7077C76.9765 21.8602 76.6358 21.5591 76.6358 20.9146V11.3817C77.5686 10.1422 78.5959 9.56463 79.8657 9.56463C81.5742 9.56463 82.2716 10.6352 82.2716 13.2587V20.9146C82.2716 21.5503 81.922 21.8602 81.1998 21.8602H80.6522V22.5769H85.8101V21.8602H85.2625C84.5705 21.8602 84.2192 21.5415 84.2192 20.9146V12.8379C84.2192 9.67204 82.8245 7.78271 80.4899 7.78271C78.6565 7.78271 77.5311 8.8339 76.634 10.0788V7.64185H76.1614L76.1079 7.71932C75.3125 8.8832 74.3565 9.80938 73.2651 10.4714L73.1794 10.5225V11.049H74.6847V20.913C74.6847 21.5486 74.3352 21.8584 73.6129 21.8584H73.0939V22.5751H78.2231V21.8584L78.2267 21.8602Z" fill="#F99FC9"/>
<path d="M91.8898 21.8602H91.3708C90.6396 21.8602 90.299 21.5591 90.299 20.9146V11.3817C91.2317 10.1422 92.259 9.56463 93.5288 9.56463C95.2374 9.56463 95.9347 10.6352 95.9347 13.2587V20.9146C95.9347 21.5503 95.5851 21.8602 94.8629 21.8602H94.3153V22.5769H99.4732V21.8602H98.9256C98.2336 21.8602 97.8823 21.5415 97.8823 20.9146V12.8379C97.8823 9.67204 96.4876 7.78271 94.153 7.78271C92.3195 7.78271 91.1943 8.8339 90.2971 10.0788V7.64185H89.8245L89.771 7.71932C88.9755 8.8832 88.0197 9.80938 86.9281 10.4714L86.8425 10.5225V11.049H88.3478V20.913C88.3478 21.5486 87.9983 21.8584 87.2759 21.8584H86.7569V22.5751H91.8862V21.8584L91.8898 21.8602Z" fill="#F99FC9"/>
<path d="M106.588 8.20166V8.94647H107.361C107.607 8.94647 107.773 9.00634 107.87 9.12783C108.087 9.40427 107.97 10.017 107.841 10.5241L105.585 19.8035L102.874 10.5153C102.671 9.83215 102.655 9.36906 102.828 9.14192C102.928 9.00986 103.101 8.94647 103.358 8.94647H104.103V8.20166H98.9453V8.94647H99.2663C99.9386 8.94647 100.44 9.50288 100.8 10.6456L104.733 23.2441C104.374 24.547 104.007 25.7303 103.614 26.8554C103.094 28.2817 102.732 28.4771 102.418 28.4771C102.198 28.4771 102.086 28.3856 101.931 28.2588C101.742 28.1056 101.508 27.9154 101.055 27.9154C100.438 27.9154 100.024 28.3362 100.024 28.9614C100.024 29.6586 100.572 30.0918 101.453 30.0918C103.099 30.0918 104.178 28.9385 105.858 22.3866L108.868 10.6351C109.24 9.13839 109.791 8.94647 110.229 8.94647H110.578V8.20166H106.586H106.588Z" fill="#F99FC9"/>
<path d="M128.745 7.98353H129.532L130.891 2.61321L130.823 2.54271C129.635 1.30314 128.349 0.773193 126.527 0.773193C120.919 0.773193 115.207 8.34632 115.207 15.7769C115.207 20.5556 117.383 23.4099 121.028 23.4099C123.24 23.4099 124.754 22.6069 126.347 21.4025L126.397 21.3638L127.65 16.2294H126.887L126.732 16.7241C125.853 19.5168 123.671 22.3428 121.201 22.3428C118.731 22.3428 117.212 20.0168 117.212 16.1184C117.212 12.9455 118.259 9.3517 120.01 6.50631C121.838 3.53936 124.149 1.83667 126.35 1.83667C128.305 1.83667 129.066 2.6607 129.066 4.77546C129.066 6.04139 128.902 7.09257 128.779 7.77224L128.742 7.98006L128.745 7.98353Z" fill="#F99FC9"/>
<path d="M135.353 7.9165C132.127 7.9165 129.097 15.1745 129.097 19.5501C129.097 22.112 129.848 23.4115 131.33 23.4115C134.556 23.4115 137.586 16.1535 137.586 11.778C137.586 9.21595 136.835 7.9165 135.353 7.9165ZM136.129 10.7779C136.129 12.889 135.485 15.7696 134.449 18.2981C133.441 20.7563 132.262 22.3444 131.446 22.3444C131.005 22.3444 130.554 22.1314 130.554 20.5484C130.554 18.4372 131.198 15.5566 132.234 13.0282C133.241 10.57 134.42 8.98176 135.237 8.98176C135.678 8.98176 136.129 9.19484 136.129 10.7779Z" fill="#F99FC9"/>
<path d="M147.247 9.69673C147.403 9.69673 147.474 9.69673 147.474 9.97841C147.474 10.202 147.34 10.7725 147.196 11.174L143.522 21.0573C143.331 21.5503 143.104 22.2388 143.104 22.7195C143.104 23.29 143.39 23.4097 143.631 23.4097C144.34 23.4097 146.094 21.443 148.842 17.5639L148.936 17.4301L148.342 16.9494L148.232 17.1043C147.351 18.3404 146.316 19.5783 145.266 20.6523L148.69 11.4346C149.033 10.4538 149.191 9.77417 149.191 9.29171C149.191 8.09438 148.482 7.9165 148.059 7.9165C146.828 7.9165 144.822 9.19137 141.926 14.7448L143.192 11.2955C143.554 10.3112 143.723 9.59282 143.723 9.03461C143.723 8.11024 143.186 7.9165 142.735 7.9165C141.144 7.9165 139.594 11.1458 139.158 12.1371L139.092 12.285L139.709 12.6179L139.794 12.4664C140.886 10.5471 141.54 9.72836 141.983 9.72836C142.004 9.72836 142.015 9.73193 142.015 9.73193C142.015 9.73193 142.036 9.7583 142.036 9.86747C142.036 10.0858 141.961 10.4028 141.815 10.8095L137.536 22.9853H139.095L139.14 22.8727C142.914 13.2077 146.058 9.7002 147.249 9.7002L147.247 9.69673Z" fill="#F99FC9"/>
<path d="M157.92 8.34454H154.973L155.26 7.28107C156.432 2.96886 157.274 2.12539 158.33 2.12539C158.892 2.12539 159.098 2.38606 159.316 2.6607C159.509 2.9055 159.728 3.18193 160.181 3.18193C160.753 3.18193 161.083 2.8474 161.083 2.26282C161.083 1.60952 160.372 0.915771 159.054 0.915771C156.628 0.915771 154.72 3.39143 153.384 8.27057L153.327 8.46074L151.135 9.0013L150.925 9.55416H153.033L149.129 23.7039C147.761 28.701 146.577 29.3736 145.598 29.3736C144.982 29.3736 144.818 29.0813 144.627 28.7416C144.454 28.4352 144.26 28.0883 143.718 28.0883C143.135 28.0883 142.787 28.5549 142.787 29.0074C142.787 29.687 143.357 30.4125 144.963 30.4125C147.739 30.4125 149.657 27.8963 151.183 22.253L154.649 9.55416H157.472L157.921 8.34454H157.92Z" fill="#F99FC9"/>
<path d="M161.219 3.83498C161.219 4.52169 161.709 4.98303 162.439 4.98303C163.168 4.98303 163.659 4.50057 163.659 3.83498C163.659 3.16939 163.134 2.63062 162.439 2.63062C161.743 2.63062 161.219 3.13777 161.219 3.83498Z" fill="#F99FC9"/>
<path d="M161.842 17.4318L161.248 16.9511L161.137 17.1061C160.192 18.4213 159.104 19.5782 158.031 20.6346L161.191 11.7233C161.485 10.8976 161.838 9.7618 161.838 9.03632C161.838 8.06268 161.273 7.91821 160.936 7.91821C160.428 7.91821 159.06 8.32849 157.33 12.1371L157.262 12.2867L157.94 12.6477L158.025 12.4946C159.085 10.6017 159.675 9.70013 160.155 9.69309C160.155 9.69309 160.18 9.7266 160.18 9.86571C160.18 10.0277 160.106 10.3376 159.957 10.8112L156.37 21.0362C156.104 21.7915 155.926 22.3779 155.926 22.7793C155.926 23.3022 156.211 23.4132 156.452 23.4132C157.396 23.4132 159.853 20.2332 161.749 17.5673L161.844 17.4336L161.842 17.4318Z" fill="#F99FC9"/>
<path d="M171.844 17.1043C170.861 18.4725 169.782 19.7384 168.696 20.8002L174.512 0.630371H173.982L173.929 0.70255C172.96 2.00736 171.863 2.93877 170.67 3.47586L170.604 3.50581L170.364 4.09911H171.924L170.77 8.11377C170.44 7.99221 170.069 7.91825 169.759 7.91825C168.293 7.91825 166.333 9.74597 164.512 12.8044C162.748 15.7714 161.651 19.0236 161.651 21.2932C161.651 22.3938 161.824 23.4114 163.075 23.4114C164.1 23.4114 165.901 21.8373 168.086 17.5692L167.1 21.0133C166.891 21.7193 166.688 22.4378 166.688 22.7776C166.688 23.3499 167.014 23.4114 167.155 23.4114C167.419 23.4114 167.934 23.223 169.356 21.5891C170.242 20.5713 171.341 19.1433 172.452 17.5639L172.547 17.43L171.953 16.9512L171.842 17.1043H171.844ZM169.269 9.23892C169.639 9.23892 169.937 9.43256 170.157 9.81468C169.773 13.6109 164.874 21.9729 163.77 21.9729C163.656 21.9729 163.312 21.9729 163.312 20.978C163.312 17.3896 166.773 9.2406 169.269 9.2406V9.23892Z" fill="#F99FC9"/>
<path d="M180.617 9.6069C180.617 8.21058 179.812 7.9165 179.136 7.9165C177.627 7.9165 175.976 9.47841 174.606 12.204C173.345 14.7132 172.562 17.7682 172.562 20.1787C172.562 21.5662 172.743 23.4115 174.303 23.4115C175.739 23.4115 177.091 21.788 178.319 18.5834L178.375 18.439L177.686 18.0728L177.611 18.2541C176.672 20.5132 175.773 21.6595 174.94 21.6595C174.323 21.6595 174.192 20.4815 174.192 19.492C174.192 18.3633 174.392 17.0304 174.769 15.6287C177.693 14.6304 180.617 12.396 180.617 9.6069ZM178.644 8.98355C178.764 8.98355 179.045 8.98355 179.045 9.69316C179.045 11.3078 177.806 13.4278 175.047 14.6427C176.038 11.4909 177.62 8.98355 178.644 8.98355Z" fill="#F99FC9"/>
<path d="M191.266 9.29171C191.266 8.09438 190.556 7.9165 190.133 7.9165C188.903 7.9165 186.896 9.19137 184 14.7448L185.266 11.2955C185.628 10.3112 185.798 9.59282 185.798 9.03461C185.798 8.11024 185.261 7.9165 184.809 7.9165C183.219 7.9165 181.669 11.1458 181.232 12.1372L181.166 12.285L181.783 12.6161L181.869 12.4647C182.96 10.5453 183.615 9.72668 184.057 9.72668C184.076 9.72668 184.089 9.73015 184.089 9.73015C184.089 9.73015 184.11 9.75652 184.11 9.86568C184.11 10.0841 184.035 10.401 183.889 10.8078L179.611 22.9836H181.169L181.214 22.8709C184.988 13.2059 188.132 9.69842 189.323 9.69842C189.479 9.69842 189.55 9.69842 189.55 9.9802C189.55 10.2038 189.416 10.7743 189.272 11.1757L185.598 21.0591C185.407 21.5521 185.18 22.2405 185.18 22.7213C185.18 23.2917 185.466 23.4115 185.707 23.4115C186.416 23.4115 188.17 21.4446 190.916 17.5656L191.011 17.4319L190.417 16.9511L190.306 17.1061C189.425 18.3422 188.391 19.58 187.34 20.654L190.764 11.4363C191.107 10.4556 191.266 9.77596 191.266 9.29349V9.29171Z" fill="#F99FC9"/>
<path d="M196.675 17.1293C195.692 18.4163 194.608 19.6788 193.573 20.7476L196.921 9.55434H199.468L199.835 8.34461H197.288L198.273 5.08716H197.62L196.461 6.07677L195.761 8.34283H193.45L193.042 9.55255H195.392L191.873 21.0664C191.618 21.8534 191.488 22.4397 191.488 22.8059C191.488 23.3519 191.856 23.41 192.014 23.41C192.767 23.41 194.326 21.6703 197.224 17.5923L197.309 17.4708L196.798 16.9655L196.675 17.1275V17.1293Z" fill="#F99FC9"/>
<path d="M203.946 17.4319L203.352 16.9511L203.241 17.1043C202.296 18.4196 201.206 19.5765 200.135 20.6329L203.295 11.7216C203.589 10.8957 203.942 9.76009 203.942 9.03461C203.942 8.06097 203.377 7.9165 203.04 7.9165C202.532 7.9165 201.164 8.32678 199.434 12.1354L199.366 12.285L200.044 12.646L200.129 12.4928C201.189 10.6 201.779 9.69841 202.259 9.69137C202.259 9.69137 202.284 9.72489 202.284 9.864C202.284 10.026 202.211 10.3358 202.061 10.8095L198.472 21.0361C198.207 21.7916 198.028 22.3779 198.028 22.7794C198.028 23.3023 198.314 23.4133 198.554 23.4133C199.075 23.4133 200.416 22.3991 203.851 17.5674L203.946 17.4336V17.4319Z" fill="#F99FC9"/>
<path d="M204.543 2.63062C203.837 2.63062 203.323 3.13777 203.323 3.83498C203.323 4.5323 203.814 4.98303 204.543 4.98303C205.273 4.98303 205.763 4.50057 205.763 3.83498C205.763 3.16939 205.239 2.63062 204.543 2.63062Z" fill="#F99FC9"/>
<path d="M214.51 17.4336L213.916 16.9547L213.805 17.1026C212.807 18.4249 211.67 19.7068 210.556 20.7686L215.202 7.28617L214.355 7.19287L213.54 8.35857C212.867 8.06628 212.362 7.91656 212.04 7.91656C207.98 7.91656 203.584 18.5447 203.584 22.0926C203.584 23.2829 204.235 23.4115 204.515 23.4115C205.872 23.4115 208.007 20.6382 210.871 15.1587L208.831 21.1824C208.621 21.8355 208.446 22.4078 208.446 22.8075C208.446 23.2073 208.603 23.4115 208.913 23.4115C210.001 23.4115 213.397 18.9391 214.412 17.5675L214.511 17.4336H214.51ZM205.412 21.5768C205.412 21.5768 205.387 21.5468 205.387 21.4359C205.387 19.2754 208.581 9.18429 211.2 9.18429C211.703 9.18429 212.218 9.49244 212.667 9.81646L212.596 10.0278C207.932 19.5201 205.71 21.575 205.41 21.575V21.5786L205.412 21.5768Z" fill="#F99FC9"/>
<path d="M221.41 0.630371L221.356 0.70255C220.388 2.00736 219.291 2.93877 218.098 3.47586L218.032 3.50581L217.791 4.09911H219.353L214.497 21.0749L214.478 21.1418C214.274 21.8585 214.114 22.4237 214.114 22.8075C214.114 23.3533 214.481 23.4114 214.64 23.4114C215.393 23.4114 216.951 21.6718 219.849 17.5938L219.935 17.4723L219.423 16.967L219.3 17.1289C218.312 18.4214 217.224 19.6892 216.186 20.7597L221.934 0.630371H221.406H221.41Z" fill="#F99FC9"/>
</g>
</g>
<defs>
<clipPath id="clip0_8095_23442">
<rect width="222" height="31" fill="white" transform="translate(0 0.630371)"/>
</clipPath>
</defs>
</svg>
