<svg width="30" height="30" viewBox="0 0 30 30" fill="none" xmlns="http://www.w3.org/2000/svg">
<path fill-rule="evenodd" clip-rule="evenodd" d="M14.9305 0.0712891C10.8761 0.0712891 10.3672 0.0890167 8.77485 0.161483C7.18556 0.234259 6.10074 0.485868 5.15152 0.855039C4.16965 1.23634 3.33675 1.7464 2.50696 2.57649C1.67655 3.40627 1.16648 4.23916 0.783935 5.22071C0.413827 6.17023 0.161905 7.25535 0.0903717 8.844C0.0191492 10.4364 0.000488281 10.9455 0.000488281 14.9999C0.000488281 19.0542 0.0185272 19.5615 0.0906827 21.1539C0.163771 22.7431 0.415382 23.8279 0.784246 24.7771C1.16586 25.759 1.67593 26.5919 2.50603 27.4217C3.3355 28.2521 4.1684 28.7634 5.14965 29.1447C6.0995 29.5139 7.18463 29.7655 8.7736 29.8382C10.366 29.9107 10.8745 29.9284 14.9286 29.9284C18.9833 29.9284 19.4906 29.9107 21.083 29.8382C22.6722 29.7655 23.7583 29.5139 24.7082 29.1447C25.6897 28.7634 26.5214 28.2521 27.3508 27.4217C28.1813 26.5919 28.6913 25.759 29.0739 24.7775C29.4409 23.8279 29.6928 22.7428 29.7674 21.1542C29.839 19.5618 29.8576 19.0542 29.8576 14.9999C29.8576 10.9455 29.839 10.4367 29.7674 8.84431C29.6928 7.25504 29.4409 6.17023 29.0739 5.22102C28.6913 4.23916 28.1813 3.40627 27.3508 2.57649C26.5204 1.74609 25.69 1.23603 24.7072 0.855039C23.7555 0.485868 22.6701 0.234259 21.0808 0.161483C19.4884 0.0890167 18.9814 0.0712891 14.9258 0.0712891H14.9305ZM13.5901 2.76029C13.9876 2.75967 14.4311 2.76029 14.9294 2.76029C18.9153 2.76029 19.3878 2.7746 20.9618 2.84613C22.4174 2.91268 23.2073 3.1559 23.7336 3.36023C24.4303 3.63081 24.9269 3.95426 25.4491 4.47676C25.9716 4.99926 26.2951 5.49688 26.5663 6.19355C26.7706 6.71916 27.0142 7.50913 27.0804 8.96467C27.1519 10.5384 27.1675 11.0111 27.1675 14.9952C27.1675 18.9793 27.1519 19.452 27.0804 21.0257C27.0139 22.4812 26.7706 23.2712 26.5663 23.7968C26.2957 24.4935 25.9716 24.9896 25.4491 25.5117C24.9266 26.0342 24.4306 26.3577 23.7336 26.6283C23.208 26.8335 22.4174 27.0761 20.9618 27.1427C19.3881 27.2142 18.9153 27.2298 14.9294 27.2298C10.9431 27.2298 10.4707 27.2142 8.89691 27.1427C7.44136 27.0755 6.65139 26.8323 6.12484 26.628C5.42816 26.3574 4.93054 26.0339 4.40803 25.5114C3.88553 24.9889 3.56207 24.4926 3.29087 23.7956C3.08653 23.27 2.843 22.48 2.77676 21.0245C2.70522 19.4507 2.69092 18.978 2.69092 14.9915C2.69092 11.0049 2.70522 10.5347 2.77676 8.96093C2.84332 7.5054 3.08653 6.71543 3.29087 6.1892C3.56145 5.49253 3.88553 4.99491 4.40803 4.47241C4.93054 3.94991 5.42816 3.62646 6.12484 3.35526C6.65107 3.14999 7.44136 2.9074 8.89691 2.84053C10.2741 2.77833 10.8078 2.75967 13.5901 2.75656V2.76029ZM22.8992 5.24086C21.9102 5.24086 21.1078 6.04233 21.1078 7.03166C21.1078 8.02068 21.9102 8.82309 22.8992 8.82309C23.8882 8.82309 24.6907 8.02068 24.6907 7.03166C24.6907 6.04264 23.8882 5.24023 22.8992 5.24023V5.24086ZM14.9325 7.33294C10.6986 7.33294 7.26597 10.7656 7.26597 14.9994C7.26597 19.2332 10.6986 22.6643 14.9325 22.6643C19.1663 22.6643 22.5978 19.2332 22.5978 14.9994C22.5978 10.7656 19.166 7.33294 14.9322 7.33294H14.9325ZM14.9273 10.0247C17.6755 10.0247 19.9036 12.2525 19.9036 15.0009C19.9036 17.749 17.6755 19.9771 14.9273 19.9771C12.1789 19.9771 9.9511 17.749 9.9511 15.0009C9.9511 12.2525 12.1789 10.0247 14.9273 10.0247Z" fill="#1B365D"/>
</svg>
