<svg width="82" height="42" viewBox="0 0 82 42" fill="none" xmlns="http://www.w3.org/2000/svg">
<g clip-path="url(#clip0_14130_1035)">
<mask id="mask0_14130_1035" style="mask-type:luminance" maskUnits="userSpaceOnUse" x="0" y="0" width="82" height="42">
<path d="M81.9282 0H0V42H81.9282V0Z" fill="white"/>
</mask>
<g mask="url(#mask0_14130_1035)">
<path d="M3.98924 1.25185V14.0787C3.98924 14.7989 3.64965 15.1346 2.92157 15.1346H2.5159V15.6662H7.0522V15.1346H6.66767C5.93563 15.1346 5.57885 14.7889 5.57885 14.0787V1.25185H6.49854C8.07101 1.25185 8.51759 1.92053 8.98144 3.52185L9.11351 3.97434H9.56806L9.25094 0.399658H0.317131L0 3.97434H0.454554L0.586692 3.52185C1.04917 1.92053 1.49712 1.25185 3.06956 1.25185H3.98924Z" fill="#F99FC9"/>
<path d="M13.9551 15.1547H13.5706C13.0288 15.1547 12.7765 14.9398 12.7765 14.4797V7.67475C13.4675 6.78989 14.2286 6.37762 15.1694 6.37762C16.4354 6.37762 16.952 7.14182 16.952 9.01462V14.4797C16.952 14.9335 16.6917 15.1547 16.1579 15.1547H15.7522V15.6662H19.5736V15.1547H19.168C18.6553 15.1547 18.395 14.9272 18.395 14.4797V8.71425C18.395 6.45429 17.3617 5.10561 15.6319 5.10561C14.2736 5.10561 13.4398 5.85599 12.7751 6.74464V0H12.425L12.3853 0.0565614C11.7656 0.951487 11.0521 1.60383 10.2658 1.99599L10.1945 2.03118V2.4334H11.3309V14.4797C11.3309 14.9335 11.0705 15.1547 10.5368 15.1547H10.1522V15.6662H13.9524V15.1547H13.9551Z" fill="#F99FC9"/>
<path d="M24.1776 15.9669C25.6972 15.9669 26.6961 15.0882 27.4176 13.1199L27.4612 12.9993L26.8956 12.8195L26.852 12.9351C26.3737 14.2172 25.4065 14.6735 24.6612 14.6735C22.9526 14.6735 21.9735 12.8509 21.9735 9.67467C21.9735 9.2423 22.0092 8.82125 22.0779 8.42157L27.3224 8.54217L27.296 8.39135C26.9287 6.33254 25.7236 5.10327 24.0718 5.10327C21.9127 5.10327 20.4037 7.32802 20.4037 10.5143C20.4037 13.7006 21.955 15.9656 24.1762 15.9656L24.1776 15.9669ZM24.0507 5.85743C25.2981 5.85743 25.5598 6.85542 25.5598 7.69377C25.5598 7.74657 25.5571 7.77297 25.5545 7.78677C25.5478 7.78677 25.5386 7.78805 25.524 7.78805H22.2206C22.5655 6.55878 23.2275 5.85743 24.0507 5.85743Z" fill="#F99FC9"/>
<path d="M35.9399 15.9667C38.2801 15.9667 39.7336 14.3692 39.7336 11.7975C39.7336 10.0114 39.2301 8.50559 36.7697 6.9684C34.5022 5.55059 34.0728 4.58151 34.0728 3.2894C34.0728 1.70316 35.2131 0.872334 36.3403 0.872334C38.0607 0.872334 38.5007 2.59181 38.5655 4.03601L38.5919 4.57648H39.1231V1.40276L39.094 1.36882C38.6989 0.894961 37.8255 0.100586 36.4235 0.100586C34.3952 0.100586 32.9245 1.69436 32.9245 3.8902C32.9245 5.52168 33.391 6.84522 35.7165 8.39751C37.7885 9.78141 38.5232 10.9013 38.5232 12.6786C38.5232 14.2196 37.5348 15.2151 36.0033 15.2151C34.3106 15.2151 33.2549 13.9078 33.1042 11.629L33.0751 11.2117H32.5664V14.716L32.61 14.7538C33.2522 15.3068 34.3516 15.9679 35.9399 15.9679V15.9667Z" fill="#F99FC9"/>
<path d="M44.2411 15.1547H43.8567C43.3148 15.1547 43.0624 14.9398 43.0624 14.4797V11.3563L43.6108 10.5983L45.6551 14.2585C45.8545 14.6255 45.9206 14.9121 45.8347 15.0454C45.7885 15.1183 45.6815 15.1559 45.5202 15.1559H45.1357V15.6675H48.9783V15.1559H48.7193C48.155 15.1559 47.6212 14.7336 47.1297 13.899L44.4975 9.38288L46.1135 7.18456C46.7372 6.33236 47.2803 5.91758 47.7732 5.91758H48.1577V5.40602H44.7789V5.91758H45.3326C45.4806 5.91758 45.6722 5.94398 45.7423 6.07093C45.84 6.24689 45.7198 6.59381 45.4132 7.02242L43.0665 10.308V0H42.7163L42.6766 0.0565614C42.0424 0.971603 41.3301 1.63022 40.5584 2.0161L40.4871 2.0513V2.45351H41.6235V14.4797C41.6235 14.9335 41.3631 15.1547 40.8294 15.1547H40.4448V15.6662H44.2451V15.1547H44.2411Z" fill="#F99FC9"/>
<path d="M51.4504 3.0745C52.012 3.0745 52.4031 2.71879 52.4031 2.20849C52.4031 1.69817 51.9935 1.30225 51.4504 1.30225C50.9073 1.30225 50.4977 1.67555 50.4977 2.20849C50.4977 2.74142 50.8809 3.0745 51.4504 3.0745Z" fill="#F99FC9"/>
<path d="M53.3506 15.1545H52.9661C52.4244 15.1545 52.172 14.9396 52.172 14.4795V5.00488H51.8218L51.7822 5.06019C51.1929 5.89102 50.4846 6.55216 49.6759 7.02475L49.6125 7.0612V7.43702H50.7277V14.4783C50.7277 14.9321 50.4687 15.1533 49.9336 15.1533H49.5491V15.6648H53.3493V15.1533L53.3506 15.1545Z" fill="#F99FC9"/>
<path d="M57.9581 15.1545H57.5735C57.0318 15.1545 56.7794 14.9396 56.7794 14.4795V7.67455C57.4705 6.78971 58.2316 6.37744 59.1724 6.37744C60.4382 6.37744 60.9549 7.14165 60.9549 9.01443V14.4795C60.9549 14.9333 60.6959 15.1545 60.1608 15.1545H59.7551V15.6661H63.5766V15.1545H63.1709C62.6582 15.1545 62.3979 14.927 62.3979 14.4795V8.71405C62.3979 6.45412 61.3645 5.10544 59.6349 5.10544C58.2765 5.10544 57.4427 5.85582 56.778 6.74446V5.00488H56.4279L56.3882 5.06019C55.7989 5.89101 55.0907 6.55216 54.282 7.02475L54.2185 7.0612V7.43702H55.3338V14.4783C55.3338 14.9321 55.0748 15.1533 54.5397 15.1533H54.1552V15.6648H57.9554V15.1533L57.9581 15.1545Z" fill="#F99FC9"/>
<path d="M68.0811 15.1545H67.6965C67.1548 15.1545 66.9024 14.9396 66.9024 14.4795V7.67455C67.5935 6.78971 68.3546 6.37744 69.2954 6.37744C70.5612 6.37744 71.0779 7.14165 71.0779 9.01443V14.4795C71.0779 14.9333 70.8189 15.1545 70.2838 15.1545H69.8781V15.6661H73.6996V15.1545H73.2939C72.7812 15.1545 72.5209 14.927 72.5209 14.4795V8.71405C72.5209 6.45412 71.4875 5.10544 69.7579 5.10544C68.3994 5.10544 67.5657 5.85582 66.901 6.74446V5.00488H66.5509L66.5112 5.06019C65.9219 5.89101 65.2137 6.55216 64.4049 7.02475L64.3415 7.0612V7.43702H65.4567V14.4783C65.4567 14.9321 65.1978 15.1533 64.6626 15.1533H64.2781V15.6648H68.0784V15.1533L68.0811 15.1545Z" fill="#F99FC9"/>
<path d="M78.9707 5.40479V5.93646H79.5439C79.7261 5.93646 79.8491 5.9792 79.9208 6.06593C80.0817 6.26326 79.9949 6.70067 79.8995 7.06266L78.2279 13.6867L76.2195 7.05638C76.0688 6.5687 76.0569 6.23813 76.1851 6.07598C76.2591 5.98171 76.3873 5.93646 76.5775 5.93646H77.1299V5.40479H73.3085V5.93646H73.5463C74.0444 5.93646 74.4158 6.33365 74.6827 7.14939L77.5963 16.1427C77.3307 17.0728 77.0586 17.9174 76.7678 18.7206C76.382 19.7387 76.1137 19.8782 75.8811 19.8782C75.7186 19.8782 75.6354 19.8129 75.5204 19.7224C75.3804 19.613 75.2072 19.4773 74.8716 19.4773C74.4144 19.4773 74.1079 19.7776 74.1079 20.2239C74.1079 20.7216 74.5136 21.0308 75.1663 21.0308C76.3859 21.0308 77.1853 20.2075 78.4301 15.5305L80.6604 7.14185C80.9356 6.07346 81.344 5.93646 81.6688 5.93646H81.9275V5.40479H78.9692H78.9707Z" fill="#F99FC9"/>
<path d="M12.4537 25.9905H13.0364L14.0433 22.157L13.9931 22.1067C13.113 21.2218 12.1603 20.8435 10.8099 20.8435C6.65547 20.8435 2.4231 26.2495 2.4231 31.5537C2.4231 34.965 4.03518 37.0025 6.73607 37.0025C8.37461 37.0025 9.49643 36.4293 10.6764 35.5695L10.7134 35.5419L11.6424 31.8768H11.0768L10.9619 32.2299C10.3104 34.2234 8.69433 36.2408 6.86425 36.2408C5.03414 36.2408 3.90833 34.5804 3.90833 31.7976C3.90833 29.5326 4.68398 26.9672 5.98157 24.936C7.33598 22.8181 9.04851 21.6027 10.679 21.6027C12.1273 21.6027 12.6915 22.1909 12.6915 23.7005C12.6915 24.6042 12.5699 25.3545 12.4788 25.8397L12.451 25.9881L12.4537 25.9905Z" fill="#F99FC9"/>
<path d="M17.3494 25.9426C14.959 25.9426 12.714 31.1237 12.714 34.2472C12.714 36.076 13.2703 37.0036 14.3683 37.0036C16.7587 37.0036 19.0038 31.8225 19.0038 28.6991C19.0038 26.8702 18.4474 25.9426 17.3494 25.9426ZM17.9241 27.9852C17.9241 29.4922 17.4472 31.5485 16.6795 33.3535C15.9329 35.1082 15.0594 36.2419 14.4543 36.2419C14.1279 36.2419 13.7936 36.0898 13.7936 34.9598C13.7936 33.4528 14.2706 31.3964 15.0383 29.5915C15.7849 27.8368 16.6583 26.703 17.2635 26.703C17.5898 26.703 17.9241 26.8552 17.9241 27.9852Z" fill="#F99FC9"/>
<path d="M26.1619 27.2134C26.2769 27.2134 26.3297 27.2134 26.3297 27.4145C26.3297 27.5741 26.2307 27.9814 26.1236 28.2679L23.4016 35.323C23.2601 35.675 23.0924 36.1665 23.0924 36.5096C23.0924 36.9169 23.3038 37.0023 23.4822 37.0023C24.0081 37.0023 25.307 35.5983 27.3433 32.8293L27.4133 32.7338L26.9732 32.3907L26.8913 32.5012C26.2385 33.3836 25.4722 34.2673 24.6939 35.034L27.2309 28.454C27.4846 27.7539 27.6022 27.2687 27.6022 26.9243C27.6022 26.0696 27.0763 25.9426 26.7631 25.9426C25.8514 25.9426 24.3648 26.8527 22.2189 30.817L23.1571 28.3547C23.4253 27.652 23.5508 27.1393 23.5508 26.7408C23.5508 26.0809 23.1531 25.9426 22.8188 25.9426C21.6402 25.9426 20.4918 28.2478 20.1682 28.9554L20.1192 29.0611L20.5764 29.2986L20.6398 29.1905C21.4486 27.8205 21.9335 27.236 22.2612 27.236C22.2771 27.236 22.285 27.2386 22.285 27.2386C22.285 27.2386 22.3008 27.2574 22.3008 27.3353C22.3008 27.4912 22.2454 27.7174 22.137 28.0078L18.967 36.6993H20.1219L20.1549 36.619C22.951 29.7197 25.2806 27.2159 26.1632 27.2159L26.1619 27.2134Z" fill="#F99FC9"/>
<path d="M34.0688 26.2483H31.8858L32.0986 25.4891C32.9667 22.4109 33.5904 21.8088 34.3727 21.8088C34.789 21.8088 34.9422 21.9949 35.1034 22.1909C35.2461 22.3657 35.4087 22.563 35.7443 22.563C36.1685 22.563 36.413 22.3242 36.413 21.9069C36.413 21.4405 35.8857 20.9453 34.9092 20.9453C33.1121 20.9453 31.6983 22.7125 30.7085 26.1955L30.6663 26.3312L29.0423 26.7171L28.8864 27.1117H30.4482L27.5557 37.2124C26.5422 40.7795 25.6648 41.2597 24.9394 41.2597C24.4835 41.2597 24.3619 41.051 24.2206 40.8085C24.0924 40.5898 23.9483 40.3421 23.5467 40.3421C23.1146 40.3421 22.8569 40.6752 22.8569 40.9982C22.8569 41.4834 23.2797 42.0013 24.4689 42.0013C26.5264 42.0013 27.9468 40.2051 29.078 36.1767L31.6454 27.1117H33.7372L34.0701 26.2483H34.0688Z" fill="#F99FC9"/>
<path d="M36.5133 23.0292C36.5133 23.5194 36.8766 23.8487 37.4171 23.8487C37.9575 23.8487 38.3209 23.5043 38.3209 23.0292C38.3209 22.554 37.9325 22.1694 37.4171 22.1694C36.9018 22.1694 36.5133 22.5315 36.5133 23.0292Z" fill="#F99FC9"/>
<path d="M36.9749 32.7353L36.5348 32.3921L36.4529 32.5028C35.7526 33.4416 34.9465 34.2674 34.1511 35.0216L36.4926 28.6603C36.7106 28.0709 36.9722 27.2601 36.9722 26.7422C36.9722 26.0472 36.5533 25.9441 36.3036 25.9441C35.927 25.9441 34.9135 26.237 33.6318 28.9557L33.5816 29.0625L34.0836 29.3202L34.1471 29.2109C34.932 27.8597 35.3694 27.2161 35.7248 27.2111C35.7248 27.2111 35.7433 27.235 35.7433 27.3343C35.7433 27.4499 35.6891 27.6711 35.5782 28.0092L32.9208 35.3082C32.7239 35.8474 32.5918 36.266 32.5918 36.5525C32.5918 36.9258 32.8033 37.005 32.9816 37.005C33.6807 37.005 35.5015 34.735 36.9061 32.832L36.9762 32.7365L36.9749 32.7353Z" fill="#F99FC9"/>
<path d="M44.3853 32.5015C43.6572 33.4781 42.8578 34.3818 42.0531 35.1398L46.3621 20.7417H45.9697L45.93 20.7932C45.2125 21.7246 44.3998 22.3895 43.5158 22.7729L43.4669 22.7943L43.2886 23.2178H44.4448L43.5899 26.0836C43.3454 25.9969 43.0705 25.9441 42.8406 25.9441C41.7544 25.9441 40.3022 27.2488 38.9532 29.432C37.6463 31.5499 36.8336 33.8715 36.8336 35.4917C36.8336 36.2773 36.9618 37.0037 37.8881 37.0037C38.6479 37.0037 39.9825 35.8801 41.6011 32.8333L40.8705 35.2918C40.7158 35.7958 40.5652 36.3087 40.5652 36.5513C40.5652 36.9598 40.807 37.0037 40.9114 37.0037C41.107 37.0037 41.4889 36.8692 42.542 35.7028C43.1987 34.9763 44.0127 33.957 44.8359 32.8295L44.906 32.734L44.4659 32.3921L44.384 32.5015H44.3853ZM42.4773 26.8868C42.752 26.8868 42.9727 27.025 43.1353 27.2978C42.8512 30.0077 39.2214 35.9768 38.4034 35.9768C38.3188 35.9768 38.0639 35.9768 38.0639 35.2666C38.0639 32.7051 40.6286 26.888 42.4773 26.888V26.8868Z" fill="#F99FC9"/>
<path d="M50.885 27.1493C50.885 26.1526 50.2891 25.9426 49.7883 25.9426C48.6704 25.9426 47.4468 27.0576 46.432 29.0032C45.4978 30.7944 44.9177 32.9752 44.9177 34.6959C44.9177 35.6863 45.0511 37.0036 46.2073 37.0036C47.271 37.0036 48.2726 35.8447 49.1831 33.5571L49.2241 33.454L48.714 33.1926L48.6585 33.322C47.9621 34.9347 47.2962 35.7529 46.6791 35.7529C46.2219 35.7529 46.1254 34.912 46.1254 34.2057C46.1254 33.4 46.2734 32.4485 46.5522 31.4479C48.7193 30.7353 50.885 29.1403 50.885 27.1493ZM49.4235 26.7043C49.5121 26.7043 49.7209 26.7043 49.7209 27.2109C49.7209 28.3635 48.8026 29.8768 46.7584 30.7441C47.4931 28.4942 48.6651 26.7043 49.4235 26.7043Z" fill="#F99FC9"/>
<path d="M58.7749 26.9243C58.7749 26.0696 58.249 25.9426 57.9358 25.9426C57.024 25.9426 55.5375 26.8527 53.3916 30.817L54.3298 28.3547C54.598 27.652 54.7235 27.1393 54.7235 26.7408C54.7235 26.0809 54.3257 25.9426 53.9914 25.9426C52.8128 25.9426 51.6645 28.2478 51.3408 28.9555L51.2919 29.0611L51.7491 29.2974L51.8125 29.1893C52.6212 27.8192 53.1062 27.2348 53.4338 27.2348C53.4483 27.2348 53.4577 27.2373 53.4577 27.2373C53.4577 27.2373 53.4735 27.2561 53.4735 27.334C53.4735 27.49 53.418 27.7162 53.3097 28.0066L50.1396 36.6982H51.2945L51.3275 36.6177C54.1236 29.7184 56.4532 27.2146 57.3359 27.2146C57.4508 27.2146 57.5037 27.2146 57.5037 27.4158C57.5037 27.5754 57.4046 27.9826 57.2975 28.2692L54.5755 35.3243C54.4341 35.6763 54.2663 36.1677 54.2663 36.5109C54.2663 36.9181 54.4778 37.0036 54.6561 37.0036C55.182 37.0036 56.4809 35.5996 58.5159 32.8306L58.5859 32.7351L58.1458 32.3919L58.0639 32.5025C57.4112 33.3849 56.6448 34.2685 55.8665 35.0352L58.4035 28.4552C58.6572 27.7552 58.7749 27.27 58.7749 26.9256V26.9243Z" fill="#F99FC9"/>
<path d="M62.7824 32.519C62.0543 33.4377 61.251 34.3389 60.4845 35.1019L62.9648 27.1117H64.8517L65.1239 26.2482H63.2369L63.9663 23.9229H63.4828L62.6238 24.6293L62.1059 26.2469H60.3933L60.0907 27.1104H61.8324L59.2252 35.3295C59.0363 35.8913 58.9398 36.3098 58.9398 36.5712C58.9398 36.9609 59.2121 37.0024 59.3296 37.0024C59.8872 37.0024 61.0422 35.7606 63.1894 32.8495L63.2528 32.7628L62.8736 32.4021L62.7824 32.5177V32.519Z" fill="#F99FC9"/>
<path d="M68.1697 32.7351L67.7296 32.3919L67.6477 32.5012C66.9474 33.4401 66.14 34.266 65.3459 35.0201L67.6874 28.6588C67.9054 28.0693 68.167 27.2587 68.167 26.7408C68.167 26.0458 67.7481 25.9426 67.4984 25.9426C67.1218 25.9426 66.1083 26.2355 64.8265 28.9543L64.7764 29.0611L65.2785 29.3188L65.3419 29.2094C66.1268 27.8582 66.5641 27.2146 66.9197 27.2096C66.9197 27.2096 66.9381 27.2335 66.9381 27.3328C66.9381 27.4485 66.8839 27.6697 66.7729 28.0078L64.1143 35.308C63.9174 35.8472 63.7853 36.2658 63.7853 36.5523C63.7853 36.9256 63.9967 37.0048 64.1751 37.0048C64.561 37.0048 65.5547 36.2809 68.0996 32.8318L68.1697 32.7363V32.7351Z" fill="#F99FC9"/>
<path d="M68.6122 22.1694C68.089 22.1694 67.7084 22.5315 67.7084 23.0292C67.7084 23.5269 68.0718 23.8487 68.6122 23.8487C69.1527 23.8487 69.5161 23.5043 69.5161 23.0292C69.5161 22.554 69.1275 22.1694 68.6122 22.1694Z" fill="#F99FC9"/>
<path d="M75.9964 32.7365L75.5564 32.3947L75.4745 32.5002C74.7345 33.4441 73.8928 34.3592 73.0669 35.1172L76.5091 25.4929L75.8815 25.4263L75.2776 26.2584C74.7794 26.0497 74.4055 25.9429 74.1663 25.9429C71.1588 25.9429 67.9016 33.5296 67.9016 36.0623C67.9016 36.912 68.3839 37.0038 68.5914 37.0038C69.597 37.0038 71.1787 35.0241 73.3008 31.1126L71.7891 35.4125C71.6332 35.8788 71.5037 36.2873 71.5037 36.5726C71.5037 36.858 71.62 37.0038 71.8499 37.0038C72.656 37.0038 75.1719 33.8112 75.9237 32.8321L75.9977 32.7365H75.9964ZM69.256 35.6941C69.256 35.6941 69.2376 35.6727 69.2376 35.5935C69.2376 34.0513 71.6041 26.8478 73.5439 26.8478C73.9165 26.8478 74.2984 27.0678 74.6314 27.2991L74.5785 27.4499C71.1232 34.2259 69.4767 35.6928 69.2548 35.6928V35.6953L69.256 35.6941Z" fill="#F99FC9"/>
<path d="M81.1091 20.7417L81.0688 20.7932C80.3513 21.7246 79.5392 22.3895 78.655 22.7729L78.6062 22.7943L78.4278 23.2178H79.585L75.9872 35.3358L75.9727 35.3836C75.822 35.8952 75.7031 36.2987 75.7031 36.5726C75.7031 36.9623 75.9753 37.0037 76.0929 37.0037C76.6505 37.0037 77.8054 35.7619 79.9524 32.8509L80.0162 32.7641L79.637 32.4034L79.5455 32.519C78.8136 33.4417 78.0076 34.3466 77.2386 35.1108L81.497 20.7417H81.1059H81.1091Z" fill="#F99FC9"/>
</g>
</g>
<defs>
<clipPath id="clip0_14130_1035">
<rect width="82" height="42" fill="white"/>
</clipPath>
</defs>
</svg>
