<svg width="23" height="27" viewBox="0 0 23 27" fill="none" xmlns="http://www.w3.org/2000/svg">
<path d="M11.9935 0.428589H16.2906C16.2906 0.428589 16.0454 6.18891 22.2459 6.61113V11.0595C22.2459 11.0595 18.9294 11.2707 16.2906 9.15954L16.3338 18.358C16.3338 20.0049 15.8666 21.6148 14.9914 22.984C14.1161 24.3531 12.8722 25.42 11.4169 26.0496C9.96161 26.6791 8.36045 26.8431 6.81604 26.5207C5.27163 26.1983 3.85338 25.404 2.74078 24.2384C1.62818 23.0728 0.871237 21.5882 0.565743 19.9726C0.260248 18.3569 0.419935 16.6828 1.02459 15.1621C1.62925 13.6414 2.6517 12.3424 3.96255 11.4296C5.27341 10.5168 6.81374 10.0312 8.38862 10.0341H9.49893V14.6032C8.77448 14.3684 7.99767 14.3786 7.27907 14.6322C6.56046 14.8859 5.93666 15.3701 5.49643 16.0159C5.0562 16.6618 4.82198 17.4364 4.82709 18.2295C4.8322 19.0226 5.07639 19.7939 5.5249 20.4335C5.97341 21.073 6.6034 21.5484 7.32521 21.7919C8.04702 22.0354 8.82389 22.0346 9.54525 21.7897C10.2666 21.5447 10.8957 21.0681 11.343 20.4276C11.7904 19.7871 12.0331 19.0154 12.0368 18.2222L11.9935 0.428589Z" fill="#1B365D"/>
</svg>
