<svg width="37" height="26" viewBox="0 0 37 26" fill="none" xmlns="http://www.w3.org/2000/svg">
<path fill-rule="evenodd" clip-rule="evenodd" d="M32.7084 0.810081C34.2851 1.23601 35.5268 2.491 35.9481 4.08472C36.7139 6.97316 36.7139 12.9999 36.7139 12.9999C36.7139 12.9999 36.7139 19.0264 35.9481 21.9151C35.5268 23.5088 34.2851 24.7638 32.7084 25.1899C29.8511 25.9638 18.3925 25.9638 18.3925 25.9638C18.3925 25.9638 6.93388 25.9638 4.07636 25.1899C2.49968 24.7638 1.25798 23.5088 0.836589 21.9151C0.0710449 19.0264 0.0710449 12.9999 0.0710449 12.9999C0.0710449 12.9999 0.0710449 6.97316 0.836589 4.08472C1.25798 2.491 2.49968 1.23601 4.07636 0.810081C6.93388 0.0360107 18.3925 0.0360107 18.3925 0.0360107C18.3925 0.0360107 29.8511 0.0360107 32.7084 0.810081ZM14.9599 7.92705V19.2L24.1206 13.5637L14.9599 7.92705Z" fill="#1B365D"/>
</svg>
